<svg width="128" height="130" viewBox="0 0 128 130" fill="none" xmlns="http://www.w3.org/2000/svg">
<rect x="87.0591" y="66.0142" width="38" height="19.9848" rx="9.9924" fill="#10217D"/>
<rect x="3.43921" y="65.9368" width="38" height="19.9848" rx="9.9924" fill="#10217D"/>
<path d="M119.345 65.7889C122.202 65.7889 123.631 65.7889 124.796 66.4661C125.662 66.9698 126.501 67.9236 126.891 68.8473C127.414 70.0892 127.252 71.3485 126.929 73.8673C125.15 87.7159 118.833 100.677 108.846 110.656C96.9379 122.556 80.7864 129.241 63.9452 129.241C47.1039 129.241 30.9525 122.556 19.0439 110.656C9.05711 100.677 2.74036 87.7159 0.961689 73.8673C0.638192 71.3485 0.476444 70.0892 0.999761 68.8473C1.38897 67.9237 2.22811 66.9699 3.09463 66.4662C4.25974 65.7889 5.68822 65.7889 8.54519 65.7889L17.7452 65.7889C20.5815 65.7889 21.9996 65.7889 22.9745 66.2254C23.8893 66.6349 24.3665 67.0199 24.9602 67.8275C25.5928 68.6882 25.9633 70.4015 26.7042 73.8282C28.2387 80.9253 31.7867 87.4955 37.0044 92.7092C44.1495 99.8489 53.8404 103.86 63.9452 103.86C74.0499 103.86 83.7408 99.8489 90.8859 92.7092C96.1036 87.4955 99.6516 80.9253 101.186 73.8281C101.927 70.4015 102.298 68.6882 102.93 67.8275C103.524 67.0199 104.001 66.6349 104.916 66.2253C105.891 65.7889 107.309 65.7889 110.145 65.7889H119.345Z" fill="#10217D"/>
<path d="M8.54526 63.6923C5.68829 63.6923 4.2598 63.6923 3.0947 63.0151C2.22817 62.5114 1.38903 61.5576 0.999822 60.6339C0.476504 59.392 0.638252 58.1327 0.961749 55.6139C2.74042 41.7653 9.05717 28.8044 19.044 18.8252C30.9525 6.92567 47.104 0.240594 63.9452 0.240593C80.7865 0.240592 96.9379 6.92566 108.846 18.8252C118.833 28.8044 125.15 41.7653 126.929 55.6139C127.252 58.1327 127.414 59.392 126.891 60.6339C126.501 61.5575 125.662 62.5114 124.796 63.0151C123.631 63.6923 122.202 63.6923 119.345 63.6923L110.145 63.6923C107.309 63.6923 105.891 63.6923 104.916 63.2558C104.001 62.8463 103.524 62.4613 102.93 61.6537C102.298 60.793 101.927 59.0797 101.186 55.6531C99.6517 48.5559 96.1036 41.9857 90.886 36.772C83.7408 29.6323 74.05 25.6213 63.9452 25.6213C53.8405 25.6213 44.1496 29.6323 37.0045 36.772C31.7868 41.9857 28.2388 48.5559 26.7042 55.6531C25.9633 59.0797 25.5929 60.793 24.9602 61.6537C24.3666 62.4613 23.8894 62.8463 22.9746 63.2559C21.9997 63.6923 20.5815 63.6923 17.7452 63.6923L8.54526 63.6923Z" fill="#17AFDF"/>
<g clip-path="url(#clip0_11_149)">
<path d="M72.8139 84.9066H72.0217C70.0647 84.9066 68.2264 84.1498 67.0891 82.8731L55.8908 70.3227C54.6597 68.9442 54 67.2913 54 65.5964C54 63.8794 54.679 62.2066 55.9377 60.8192L66.9511 48.6738C68.0911 47.4169 69.9156 46.6713 71.8561 46.6713C76.866 46.6713 79.7173 51.267 76.6921 54.4688L66.5371 65.218L77.6692 77.129C80.6668 80.3351 77.8127 84.9066 72.8167 84.9066H72.8139Z" fill="#10217D"/>
</g>
<defs>
<clipPath id="clip0_11_149">
<rect width="24.892" height="38.2353" fill="white" transform="translate(54 46.6713)"/>
</clipPath>
</defs>
</svg>
