<svg width="180" height="100" viewBox="0 0 843 265" fill="none" xmlns="http://www.w3.org/2000/svg">
<rect x="87.0591" y="145.014" width="38" height="19.9848" rx="9.9924" fill="#10217D"/>
<rect x="3.43921" y="144.937" width="38" height="19.9848" rx="9.9924" fill="#10217D"/>
<path d="M119.345 144.789C122.202 144.789 123.631 144.789 124.796 145.466C125.662 145.97 126.501 146.924 126.891 147.847C127.414 149.089 127.252 150.349 126.929 152.867C125.15 166.716 118.833 179.677 108.846 189.656C96.9379 201.556 80.7864 208.241 63.9452 208.241C47.1039 208.241 30.9525 201.556 19.0439 189.656C9.05711 179.677 2.74036 166.716 0.961689 152.867C0.638192 150.349 0.476444 149.089 0.999761 147.847C1.38897 146.924 2.22811 145.97 3.09463 145.466C4.25974 144.789 5.68822 144.789 8.54519 144.789L17.7452 144.789C20.5815 144.789 21.9996 144.789 22.9745 145.225C23.8893 145.635 24.3665 146.02 24.9602 146.828C25.5928 147.688 25.9633 149.402 26.7042 152.828C28.2387 159.925 31.7867 166.495 37.0044 171.709C44.1495 178.849 53.8404 182.86 63.9452 182.86C74.0499 182.86 83.7408 178.849 90.8859 171.709C96.1036 166.495 99.6516 159.925 101.186 152.828C101.927 149.401 102.298 147.688 102.93 146.828C103.524 146.02 104.001 145.635 104.916 145.225C105.891 144.789 107.309 144.789 110.145 144.789H119.345Z" fill="#10217D"/>
<path d="M8.54526 142.692C5.68829 142.692 4.2598 142.692 3.0947 142.015C2.22817 141.511 1.38903 140.558 0.999822 139.634C0.476504 138.392 0.638252 137.133 0.961749 134.614C2.74042 120.765 9.05717 107.804 19.044 97.8252C30.9525 85.9257 47.104 79.2406 63.9452 79.2406C80.7865 79.2406 96.9379 85.9257 108.846 97.8252C118.833 107.804 125.15 120.765 126.929 134.614C127.252 137.133 127.414 138.392 126.891 139.634C126.501 140.558 125.662 141.511 124.796 142.015C123.631 142.692 122.202 142.692 119.345 142.692L110.145 142.692C107.309 142.692 105.891 142.692 104.916 142.256C104.001 141.846 103.524 141.461 102.93 140.654C102.298 139.793 101.927 138.08 101.186 134.653C99.6517 127.556 96.1036 120.986 90.886 115.772C83.7408 108.632 74.05 104.621 63.9452 104.621C53.8405 104.621 44.1496 108.632 37.0045 115.772C31.7868 120.986 28.2388 127.556 26.7042 134.653C25.9633 138.08 25.5929 139.793 24.9602 140.654C24.3666 141.461 23.8894 141.846 22.9746 142.256C21.9997 142.692 20.5815 142.692 17.7452 142.692L8.54526 142.692Z" fill="#17AFDF"/>
<g clip-path="url(#clip0_11_175)">
<path d="M72.8139 163.907H72.0217C70.0647 163.907 68.2264 163.15 67.0891 161.873L55.8908 149.323C54.6597 147.944 54 146.291 54 144.596C54 142.879 54.679 141.207 55.9377 139.819L66.9511 127.674C68.0911 126.417 69.9156 125.671 71.8561 125.671C76.866 125.671 79.7173 130.267 76.6921 133.469L66.5371 144.218L77.6692 156.129C80.6668 159.335 77.8127 163.907 72.8167 163.907H72.8139Z" fill="#10217D"/>
</g>
<path d="M378.021 161.288C380.421 161.288 381.621 164.355 381.621 170.488C381.621 173.821 380.221 177.888 377.421 182.688C374.621 187.355 370.954 191.688 366.421 195.688C362.021 199.555 357.088 202.755 351.621 205.288C346.154 207.821 340.821 209.088 335.621 209.088C328.288 209.088 323.488 203.088 321.221 191.088C313.221 203.755 301.354 210.088 285.621 210.088C276.021 210.088 268.354 207.155 262.621 201.288C256.888 195.421 254.088 188.288 254.221 179.888C254.221 157.221 261.754 139.355 276.821 126.288C287.221 117.355 298.021 112.888 309.221 112.888C314.288 112.888 318.288 113.288 321.221 114.088L325.821 115.288C331.288 89.5547 337.621 72.3547 344.821 63.688C347.221 60.7547 349.621 59.288 352.021 59.288C355.888 59.288 359.488 61.9547 362.821 67.288C365.754 71.688 367.221 75.488 367.221 78.688C367.221 81.888 366.754 85.0214 365.821 88.088C364.888 91.1547 363.688 94.0214 362.221 96.688C360.888 99.2214 359.354 101.755 357.621 104.288C355.888 106.688 354.154 109.155 352.421 111.688C348.554 126.088 345.688 142.221 343.821 160.088C343.288 165.155 343.021 169.221 343.021 172.288C343.021 181.488 344.554 186.088 347.621 186.088C351.088 186.088 359.488 179.155 372.821 165.288C375.221 162.621 376.954 161.288 378.021 161.288ZM283.621 173.288C283.621 183.555 287.421 188.688 295.021 188.688C299.554 188.688 304.088 186.955 308.621 183.488C313.288 180.021 316.888 174.221 319.421 166.088C319.688 154.088 321.088 140.888 323.621 126.488C312.954 128.621 303.621 133.821 295.621 142.088C287.621 150.355 283.621 160.755 283.621 173.288ZM452.427 191.488C441.894 203.888 429.227 210.088 414.427 210.088C399.761 210.088 388.761 206.355 381.427 198.888C374.094 191.288 370.494 181.888 370.627 170.688C370.494 154.821 375.494 141.155 385.627 129.688C395.761 118.221 409.027 112.488 425.427 112.488C432.894 112.488 438.894 113.421 443.427 115.288C451.294 118.488 455.227 121.488 455.227 124.288C455.227 126.421 449.694 127.555 438.627 127.688C427.694 127.688 418.494 131.488 411.027 139.088C403.694 146.555 400.027 156.021 400.027 167.488C400.027 173.488 401.761 178.555 405.227 182.688C408.827 186.688 413.827 188.688 420.227 188.688C426.761 188.688 432.161 187.355 436.427 184.688C426.961 178.288 422.227 169.021 422.227 156.888C422.094 150.488 424.361 144.688 429.027 139.488C433.827 134.155 439.894 131.488 447.227 131.488C454.694 131.355 460.027 133.355 463.227 137.488C466.427 141.621 468.027 146.955 468.027 153.488C468.027 159.888 466.494 166.688 463.427 173.888H464.627C470.494 173.755 475.561 171.688 479.827 167.688C481.427 166.088 482.761 164.688 483.827 163.488C485.027 162.288 486.227 161.688 487.427 161.688C489.294 161.688 490.227 163.888 490.227 168.288C490.227 176.421 487.827 182.555 483.027 186.688C478.227 190.688 472.894 192.688 467.027 192.688C461.294 192.688 456.427 192.288 452.427 191.488ZM450.627 168.288C452.894 163.488 454.027 158.821 454.027 154.288C454.027 149.755 452.561 147.488 449.627 147.488C448.427 147.488 447.427 148.355 446.627 150.088C445.827 151.821 445.427 153.488 445.427 155.088C445.427 160.421 447.161 164.821 450.627 168.288ZM559.621 161.288C562.021 161.288 563.221 163.355 563.221 167.488C563.221 171.488 562.154 175.821 560.021 180.488C558.021 185.155 554.888 189.688 550.621 194.088C546.488 198.355 541.154 202.021 534.621 205.088C528.088 208.155 520.354 209.688 511.421 209.688C502.621 209.688 494.888 207.088 488.221 201.888C481.554 196.555 478.221 188.955 478.221 179.088C478.221 169.088 479.754 160.088 482.821 152.088C486.021 143.955 490.154 136.955 495.221 131.088C500.421 125.221 506.288 120.688 512.821 117.488C519.354 114.155 525.554 112.488 531.421 112.488C541.688 112.488 546.821 116.555 546.821 124.688C546.821 129.355 545.821 133.088 543.821 135.888C541.954 138.688 540.021 140.088 538.021 140.088C535.354 140.088 533.021 139.155 531.021 137.288C529.021 135.421 526.821 134.488 524.421 134.488C522.021 134.355 519.688 135.488 517.421 137.888C515.288 140.288 513.488 143.355 512.021 147.088C509.088 154.555 507.621 163.288 507.621 173.288C507.754 178.088 509.954 181.688 514.221 184.088C517.154 185.688 520.621 186.555 524.621 186.688C528.621 186.688 532.421 185.355 536.021 182.688C539.754 180.021 543.154 177.155 546.221 174.088C549.288 170.888 551.954 167.955 554.221 165.288C556.621 162.621 558.421 161.288 559.621 161.288ZM562.068 197.688C560.601 194.088 559.534 189.955 558.868 185.288C558.201 180.488 557.868 173.821 557.868 165.288C557.868 156.755 559.468 145.221 562.668 130.688H553.668C552.068 130.688 551.268 130.021 551.268 128.688C551.268 125.488 551.534 122.888 552.068 120.888C552.734 118.755 554.201 116.355 556.468 113.688H561.268C563.134 113.688 565.134 113.621 567.268 113.488C573.668 92.9547 580.201 82.688 586.868 82.688C592.201 82.8214 595.934 86.2214 598.068 92.888C598.601 94.7547 599.201 96.7547 599.868 98.888L591.668 113.288C601.001 113.555 606.868 113.688 609.268 113.688C611.801 113.688 613.134 113.955 613.268 114.488C613.534 114.888 613.668 115.555 613.668 116.488C613.668 118.888 613.068 121.888 611.868 125.488C610.801 129.088 609.534 130.821 608.068 130.688L588.068 129.688C585.268 145.955 583.868 159.421 583.868 170.088C583.868 180.755 585.401 186.088 588.468 186.088C591.001 186.088 595.601 184.021 602.268 179.888C608.934 175.621 613.734 171.555 616.668 167.688C619.601 163.821 622.001 161.888 623.868 161.888C625.734 161.888 626.668 164.155 626.668 168.688C626.668 173.221 625.068 177.888 621.868 182.688C618.668 187.355 614.601 191.688 609.668 195.688C604.868 199.555 599.468 202.755 593.468 205.288C587.601 207.821 582.468 209.088 578.068 209.088C573.668 209.088 570.268 208.088 567.868 206.088C565.601 203.955 563.668 201.155 562.068 197.688ZM697.544 191.488C687.011 203.888 674.344 210.088 659.544 210.088C644.878 210.088 633.878 206.355 626.544 198.888C619.211 191.288 615.611 181.888 615.744 170.688C615.611 154.821 620.611 141.155 630.744 129.688C640.878 118.221 654.144 112.488 670.544 112.488C678.011 112.488 684.011 113.421 688.544 115.288C696.411 118.488 700.344 121.488 700.344 124.288C700.344 126.421 694.811 127.555 683.744 127.688C672.811 127.688 663.611 131.488 656.144 139.088C648.811 146.555 645.144 156.021 645.144 167.488C645.144 173.488 646.878 178.555 650.344 182.688C653.944 186.688 658.944 188.688 665.344 188.688C671.878 188.688 677.278 187.355 681.544 184.688C672.078 178.288 667.344 169.021 667.344 156.888C667.211 150.488 669.478 144.688 674.144 139.488C678.944 134.155 685.011 131.488 692.344 131.488C699.811 131.355 705.144 133.355 708.344 137.488C711.544 141.621 713.144 146.955 713.144 153.488C713.144 159.888 711.611 166.688 708.544 173.888H709.744C715.611 173.755 720.678 171.688 724.944 167.688C726.544 166.088 727.878 164.688 728.944 163.488C730.144 162.288 731.344 161.688 732.544 161.688C734.411 161.688 735.344 163.888 735.344 168.288C735.344 176.421 732.944 182.555 728.144 186.688C723.344 190.688 718.011 192.688 712.144 192.688C706.411 192.688 701.544 192.288 697.544 191.488ZM695.744 168.288C698.011 163.488 699.144 158.821 699.144 154.288C699.144 149.755 697.678 147.488 694.744 147.488C693.544 147.488 692.544 148.355 691.744 150.088C690.944 151.821 690.544 153.488 690.544 155.088C690.544 160.421 692.278 164.821 695.744 168.288ZM754.538 174.888L755.738 199.288C755.738 202.488 754.071 205.355 750.738 207.888C747.405 210.421 742.871 211.688 737.138 211.688C733.805 211.688 731.471 209.955 730.138 206.488C728.938 203.021 728.338 197.955 728.338 191.288C728.338 177.288 729.005 166.355 730.338 158.488C731.805 150.488 734.605 142.421 738.738 134.288C732.605 128.421 729.538 123.355 729.538 119.088C729.538 110.155 734.338 105.688 743.938 105.688C748.871 105.688 753.205 108.288 756.938 113.488C759.605 117.088 761.538 121.288 762.738 126.088C764.605 126.755 766.938 127.088 769.738 127.088C773.605 127.088 778.071 125.821 783.138 123.288L788.338 120.688C789.938 119.888 791.338 119.488 792.538 119.488C796.405 119.488 800.271 125.155 804.138 136.488C802.938 141.688 801.605 146.688 800.138 151.488C798.805 156.288 797.205 162.088 795.338 168.888C793.471 175.688 792.471 180.288 792.338 182.688C792.338 184.955 793.071 186.088 794.538 186.088C796.538 186.088 799.005 184.821 801.938 182.288C804.871 179.755 807.805 177.021 810.738 174.088C813.671 171.021 816.338 168.221 818.738 165.688C821.271 163.155 823.005 161.888 823.938 161.888C825.805 161.888 826.738 164.155 826.738 168.688C826.738 177.888 822.671 186.955 814.538 195.888C806.538 204.821 797.338 209.221 786.938 209.088C780.805 209.088 776.205 206.621 773.138 201.688C770.071 196.755 768.471 190.755 768.338 183.688C768.338 169.688 771.471 156.421 777.738 143.888C774.805 145.088 771.471 145.688 767.738 145.688C764.138 145.688 761.538 145.555 759.938 145.288C758.738 150.355 757.538 155.488 756.338 160.688C755.138 165.755 754.538 170.488 754.538 174.888Z" fill="#17AFDF"/>
<path d="M186.881 162.624C190.481 176.891 196.548 184.024 205.081 184.024C209.215 184.024 212.948 182.757 216.281 180.224C219.615 177.691 222.615 174.957 225.281 172.024C227.948 168.957 230.281 166.157 232.281 163.624C234.281 161.091 236.148 159.824 237.881 159.824C239.615 159.824 240.481 162.091 240.481 166.624C240.481 176.091 236.081 185.224 227.281 194.024C218.481 202.824 208.615 207.157 197.681 207.024C186.881 207.024 177.215 197.491 168.681 178.424C166.281 173.091 164.015 167.691 161.881 162.224L160.481 189.624C160.481 192.157 160.348 194.691 160.081 197.224C159.815 199.624 158.681 201.624 156.681 203.224C151.481 207.357 146.215 209.424 140.881 209.424C134.615 209.424 131.481 202.957 131.481 190.024C131.481 171.357 133.681 151.824 138.081 131.424C142.481 111.024 146.748 95.6907 150.881 85.4241C155.148 75.0241 158.415 68.0907 160.681 64.6241C163.081 61.1574 164.948 59.0241 166.281 58.2241C167.615 57.4241 169.081 57.0241 170.681 57.0241C172.415 57.0241 174.215 57.8907 176.081 59.6241C177.948 61.2241 179.948 63.7574 182.081 67.2241C184.215 70.5574 185.281 73.8907 185.281 77.2241C185.415 80.4241 184.881 83.6241 183.681 86.8241C182.615 89.8907 181.148 92.9574 179.281 96.0241C177.415 98.9574 175.348 102.024 173.081 105.224C170.815 108.291 168.548 111.624 166.281 115.224L164.281 132.024C168.948 122.291 175.815 115.757 184.881 112.424C188.081 111.224 191.815 110.624 196.081 110.624C204.615 110.624 211.148 112.691 215.681 116.824C220.215 120.824 222.481 126.757 222.481 134.624C222.481 142.491 218.548 149.157 210.681 154.624C202.815 160.091 194.881 162.757 186.881 162.624ZM194.481 139.224C194.481 134.424 191.748 132.024 186.281 132.024C180.815 132.024 174.881 137.291 168.481 147.824C166.615 150.891 165.015 154.024 163.681 157.224C177.548 156.424 187.015 152.691 192.081 146.024C193.681 143.891 194.481 141.624 194.481 139.224Z" fill="#10217D"/>
<defs>
<clipPath id="clip0_11_175">
<rect width="24.892" height="38.2353" fill="white" transform="translate(54 125.671)"/>
</clipPath>
</defs>
</svg>
